HIERARCHY
ROOT Reference
{
  OFFSET 0 0 0
  CHANNELS 6 Xposition Yposition Zposition Zrotation Xrotation Yrotation
  JOINT Hips
  {
    OFFSET 251.394 724.17 483.536
    CHANNELS 3 Zrotation Xrotation Yrotation
    JOINT RightUpLeg
    {
      OFFSET -0.450515 -23.4426 -1.37224
      CHANNELS 3 Zrotation Xrotation Yrotation
      JOINT RightLeg
      {
        OFFSET 112.821 0.0872427 -0.321027
        CHANNELS 3 Zrotation Xrotation Yrotation
        JOINT RightFoot
        {
          OFFSET 105.718 0.000193788 0.0213165
          CHANNELS 3 Zrotation Xrotation Yrotation
          JOINT RightToeBase
          {
            OFFSET 37.638 -0.000116272 0.00224792
            CHANNELS 3 Zrotation Xrotation Yrotation
            JOINT RightToeEnd
            {
              OFFSET 21.2112 0.114605 -0.000138184
              CHANNELS 3 Zrotation Xrotation Yrotation
              End Site
              {
                OFFSET 0 0 0
              }
            }
          }
        }
      }
    }
    JOINT LeftUpLeg
    {
      OFFSET -0.449508 23.4315 -1.37054
      CHANNELS 3 Zrotation Xrotation Yrotation
      JOINT LeftLeg
      {
        OFFSET 112.821 -0.0485242 -0.372458
        CHANNELS 3 Zrotation Xrotation Yrotation
        JOINT LeftFoot
        {
          OFFSET 105.716 0.00496094 -0.0229443
          CHANNELS 3 Zrotation Xrotation Yrotation
          JOINT LeftToeBase
          {
            OFFSET 37.639 0 0.00158905
            CHANNELS 3 Zrotation Xrotation Yrotation
            JOINT LeftToeEnd
            {
              OFFSET 21.2113 -0.125031 -0.00017438
              CHANNELS 3 Zrotation Xrotation Yrotation
              End Site
              {
                OFFSET 0 0 0
              }
            }
          }
        }
      }
    }
    JOINT Spine
    {
      OFFSET -5.01225 0.000463591 -9.60395
      CHANNELS 3 Zrotation Xrotation Yrotation
      JOINT Spine1
      {
        OFFSET 26.0222 -0.000271301 -0.000155029
        CHANNELS 3 Zrotation Xrotation Yrotation
        JOINT Spine2
        {
          OFFSET 27.173 -0.000155029 -0.000310058
          CHANNELS 3 Zrotation Xrotation Yrotation
          JOINT Spine3
          {
            OFFSET 36.3953 -0.000232544 7.75146e-005
            CHANNELS 3 Zrotation Xrotation Yrotation
            JOINT Neck
            {
              OFFSET 36.4331 0 -3.00261
              CHANNELS 3 Zrotation Xrotation Yrotation
              JOINT Head
              {
                OFFSET 23.0407 -0.000232544 -0.000310058
                CHANNELS 3 Zrotation Xrotation Yrotation
                End Site
                {
                  OFFSET 0 0 0
                }
              }
            }
            JOINT LeftShoulder
            {
              OFFSET 20.1317 6.74168 -12.6061
              CHANNELS 3 Zrotation Xrotation Yrotation
              JOINT LeftArm
              {
                OFFSET 34.2172 -5.81359e-005 7.75146e-005
                CHANNELS 3 Zrotation Xrotation Yrotation
                JOINT LeftForeArm
                {
                  OFFSET 65.4129 -0.0821605 0.0585235
                  CHANNELS 3 Zrotation Xrotation Yrotation
                  JOINT LeftHand
                  {
                    OFFSET 67.3883 0.0359667 0.0112396
                    CHANNELS 3 Zrotation Xrotation Yrotation
                    JOINT LeftHandThumb1
                    {
                      OFFSET 8.78386 2.85353 -6.05362
                      CHANNELS 3 Zrotation Xrotation Yrotation
                      JOINT LeftHandThumb2
                      {
                        OFFSET 8.25498 -0.000116272 -0.000174407
                        CHANNELS 3 Zrotation Xrotation Yrotation
                        JOINT LeftHandThumb3
                        {
                          OFFSET 7.24822 0.000310058 5.81358e-005
                          CHANNELS 3 Zrotation Xrotation Yrotation
                          JOINT LeftHandThumb4
                          {
                            OFFSET 7.0004 -3.87568e-005 -0.000310057
                            CHANNELS 3 Zrotation Xrotation Yrotation
                            End Site
                            {
                              OFFSET 0 0 0
                            }
                          }
                        }
                      }
                    }
                    JOINT LeftHandIndex1
                    {
                      OFFSET 24.0991 -1.01537 -5.40558
                      CHANNELS 3 Zrotation Xrotation Yrotation
                      JOINT LeftHandIndex2
                      {
                        OFFSET 7.26759 -0.000290679 -0.000465086
                        CHANNELS 3 Zrotation Xrotation Yrotation
                        JOINT LeftHandIndex3
                        {
                          OFFSET 7.13628 -1.93787e-005 0.000232543
                          CHANNELS 3 Zrotation Xrotation Yrotation
                          JOINT LeftHandIndex4
                          {
                            OFFSET 5.46699 9.68932e-005 -0.000387571
                            CHANNELS 3 Zrotation Xrotation Yrotation
                            End Site
                            {
                              OFFSET 0 0 0
                            }
                          }
                        }
                      }
                    }
                    JOINT LeftHandMiddle1
                    {
                      OFFSET 24.4604 -2.52837 0.918567
                      CHANNELS 3 Zrotation Xrotation Yrotation
                      JOINT LeftHandMiddle2
                      {
                        OFFSET 7.41627 -5.81359e-005 0.000116271
                        CHANNELS 3 Zrotation Xrotation Yrotation
                        JOINT LeftHandMiddle3
                        {
                          OFFSET 8.76829 3.87573e-005 -7.75142e-005
                          CHANNELS 3 Zrotation Xrotation Yrotation
                          JOINT LeftHandMiddle4
                          {
                            OFFSET 6.07588 -0.00013565 -5.81356e-005
                            CHANNELS 3 Zrotation Xrotation Yrotation
                            End Site
                            {
                              OFFSET 0 0 0
                            }
                          }
                        }
                      }
                    }
                    JOINT LeftHandRing1
                    {
                      OFFSET 22.465 -1.97467 6.3466
                      CHANNELS 3 Zrotation Xrotation Yrotation
                      JOINT LeftHandRing2
                      {
                        OFFSET 7.36666 -0.000232544 0.000387571
                        CHANNELS 3 Zrotation Xrotation Yrotation
                        JOINT LeftHandRing3
                        {
                          OFFSET 8.07624 -0.000465087 -0.000203475
                          CHANNELS 3 Zrotation Xrotation Yrotation
                          JOINT LeftHandRing4
                          {
                            OFFSET 6.04433 0.00013565 3.87571e-005
                            CHANNELS 3 Zrotation Xrotation Yrotation
                            End Site
                            {
                              OFFSET 0 0 0
                            }
                          }
                        }
                      }
                    }
                    JOINT LeftHandPinky1
                    {
                      OFFSET 19.5278 0.352933 10.4295
                      CHANNELS 3 Zrotation Xrotation Yrotation
                      JOINT LeftHandPinky2
                      {
                        OFFSET 6.16525 5.8136e-005 -0.000251921
                        CHANNELS 3 Zrotation Xrotation Yrotation
                        JOINT LeftHandPinky3
                        {
                          OFFSET 6.14448 -0.000329434 -0.00510625
                          CHANNELS 3 Zrotation Xrotation Yrotation
                          JOINT LeftHandPinky4
                          {
                            OFFSET 4.98555 0.000116272 0.000116271
                            CHANNELS 3 Zrotation Xrotation Yrotation
                            End Site
                            {
                              OFFSET 0 0 0
                            }
                          }
                        }
                      }
                    }
                  }
                }
              }
            }
            JOINT RightShoulder
            {
              OFFSET 20.1309 -6.74152 -12.6063
              CHANNELS 3 Zrotation Xrotation Yrotation
              JOINT RightArm
              {
                OFFSET 34.2171 7.75146e-005 7.75146e-005
                CHANNELS 3 Zrotation Xrotation Yrotation
                JOINT RightForeArm
                {
                  OFFSET 65.4492 0.242543 -0.176501
                  CHANNELS 3 Zrotation Xrotation Yrotation
                  JOINT RightHand
                  {
                    OFFSET 67.3888 -0.0867388 0.0597442
                    CHANNELS 3 Zrotation Xrotation Yrotation
                    JOINT RightHandThumb1
                    {
                      OFFSET 8.78307 -2.85357 -6.05302
                      CHANNELS 3 Zrotation Xrotation Yrotation
                      JOINT RightHandThumb2
                      {
                        OFFSET 8.25493 -7.75145e-005 0
                        CHANNELS 3 Zrotation Xrotation Yrotation
                        JOINT RightHandThumb3
                        {
                          OFFSET 7.24797 -0.000174408 0.000155029
                          CHANNELS 3 Zrotation Xrotation Yrotation
                          JOINT RightHandThumb4
                          {
                            OFFSET 7.00062 0 0
                            CHANNELS 3 Zrotation Xrotation Yrotation
                            End Site
                            {
                              OFFSET 0 0 0
                            }
                          }
                        }
                      }
                    }
                    JOINT RightHandIndex1
                    {
                      OFFSET 24.0991 1.01525 -5.40578
                      CHANNELS 3 Zrotation Xrotation Yrotation
                      JOINT RightHandIndex2
                      {
                        OFFSET 7.26773 7.75144e-005 0.000232543
                        CHANNELS 3 Zrotation Xrotation Yrotation
                        JOINT RightHandIndex3
                        {
                          OFFSET 7.13572 -0.000310058 3.87571e-005
                          CHANNELS 3 Zrotation Xrotation Yrotation
                          JOINT RightHandIndex4
                          {
                            OFFSET 5.46717 0 3.87572e-005
                            CHANNELS 3 Zrotation Xrotation Yrotation
                            End Site
                            {
                              OFFSET 0 0 0
                            }
                          }
                        }
                      }
                    }
                    JOINT RightHandMiddle1
                    {
                      OFFSET 24.4603 2.52899 0.918547
                      CHANNELS 3 Zrotation Xrotation Yrotation
                      JOINT RightHandMiddle2
                      {
                        OFFSET 7.41641 -0.000116272 -0.000116272
                        CHANNELS 3 Zrotation Xrotation Yrotation
                        JOINT RightHandMiddle3
                        {
                          OFFSET 8.76765 -3.87577e-005 0.000232543
                          CHANNELS 3 Zrotation Xrotation Yrotation
                          JOINT RightHandMiddle4
                          {
                            OFFSET 6.07609 -0.000193787 -0.000116271
                            CHANNELS 3 Zrotation Xrotation Yrotation
                            End Site
                            {
                              OFFSET 0 0 0
                            }
                          }
                        }
                      }
                    }
                    JOINT RightHandRing1
                    {
                      OFFSET 22.465 1.97571 6.34696
                      CHANNELS 3 Zrotation Xrotation Yrotation
                      JOINT RightHandRing2
                      {
                        OFFSET 7.36684 0.000193786 0.000155029
                        CHANNELS 3 Zrotation Xrotation Yrotation
                        JOINT RightHandRing3
                        {
                          OFFSET 8.07614 -0.000271301 0
                          CHANNELS 3 Zrotation Xrotation Yrotation
                          JOINT RightHandRing4
                          {
                            OFFSET 6.04468 0.000232543 0
                            CHANNELS 3 Zrotation Xrotation Yrotation
                            End Site
                            {
                              OFFSET 0 0 0
                            }
                          }
                        }
                      }
                    }
                    JOINT RightHandPinky1
                    {
                      OFFSET 19.5277 -0.352346 10.4296
                      CHANNELS 3 Zrotation Xrotation Yrotation
                      JOINT RightHandPinky2
                      {
                        OFFSET 6.16508 0 0.000232543
                        CHANNELS 3 Zrotation Xrotation Yrotation
                        JOINT RightHandPinky3
                        {
                          OFFSET 6.14396 -0.000155048 -0.0048834
                          CHANNELS 3 Zrotation Xrotation Yrotation
                          JOINT RightHandPinky4
                          {
                            OFFSET 4.98577 -7.75146e-005 -7.75143e-005
                            CHANNELS 3 Zrotation Xrotation Yrotation
                            End Site
                            {
                              OFFSET 0 0 0
                            }
                          }
                        }
                      }
                    }
                  }
                }
              }
            }
          }
        }
      }
    }
  }
}
MOTION
Frames:	5
Frame Time:	0.0333333
0 0 0 -90 -7.01671e-015 -180 -135.226 77.2417 23.2846 142.473 -0.219032 -95.1713 -2.62358 -2.37745 -49.0948 16.5324 23.1596 35.6518 -16.9209 21.3594 58.1234 -1.89886e-005 3.35277e-006 -86.4974 168.483 -22.9904 -115.381 -0.245766 -0.089257 -5.03108 -8.80606 -2.45854 39.8288 -4.21567 4.02781 52.6666 2.79894e-005 -7.48301e-006 -86.4974 0.00704118 -0.00522294 123.633 -8.37024 7.69053 -12.0465 14.218 5.16396 -13.7919 0.343117 -2.93988 -8.66855 3.73325 -6.09591 38.6755 7.9858 -11.9977 46.0672 105.841 21.8189 -31.0699 63.3992 15.2249 -8.38982 -11.0984 30.1257 28.0488 -1.02346 -46.9316 -3.57641 -158.644 -1.25081 154.969 0.00046824 -0.000141756 18.1945 0.000150491 -5.32088e-005 11.9589 0.000183986 -0.00134517 -0.000152183 36.0655 86.5083 -17.7567 -0.000311898 -0.000230779 14.4451 0.00111945 -0.000798497 10.5803 -0.00056882 -0.000442662 -2.32885 -1.69224 86.8813 32.804 0.000110593 -0.000168273 15.1989 0.000916824 -0.000696636 16.0249 -0.000507831 -0.000382218 -2.3282 -58.2671 83.2335 92.5886 0.000115613 -0.000860525 16.2201 0.00154039 -0.000402981 17.0667 -0.000629878 -0.000651765 -2.32753 -63.1891 86.0926 89.0509 0.00112955 -0.00114382 19.2789 0.000138949 -0.000152677 18.9148 -1.68988e-005 -2.37639e-005 -2.32874 -54.8344 -20.6853 -8.73295 -3.26016 45.0423 26.9663 7.08408 20.3356 24.6654 0.229429 35.661 -10.401 142.213 51.8015 169.894 1.35871e-005 -0.000570588 16.9256 7.99926e-005 8.0448e-005 18.8543 -0.000244141 3.24611e-014 -180 -95.0293 -68.1709 -102.33 -0.000191063 -0.000224062 49.758 4.29265e-005 -6.70387e-005 45.1944 -1.52588e-005 -0.00012207 -180 -105.983 -79.9218 -76.0642 -0.000204196 3.49695e-005 65.9845 -0.000305564 0.000350906 58.5702 4.57764e-005 -6.10351e-005 -180 -16.179 -83.9646 34.4444 -9.10403e-005 0.000275185 55.5556 -0.000214825 -5.14923e-005 57.7158 -6.10352e-005 -0.000213623 -180 13.4556 -78.0188 70.402 -0.000285221 0.000532574 51.2477 -6.08347e-005 0.000159067 49.3612 -4.57764e-005 -0.000152588 -180 
0 0 0 -90 -7.01671e-015 -180 -136.085 76.8932 24.2125 142.625 -0.392816 -95.3383 -2.62998 -2.37465 -49.1968 16.3323 23.2956 35.9271 -16.9486 21.3378 58.1994 -1.90599e-005 1.24436e-006 -86.4974 168.75 -23.2607 -115.349 -0.245657 -0.0869081 -5.08177 -8.75254 -2.37015 39.8414 -4.2197 4.02359 52.7239 2.79656e-005 -1.08314e-005 -86.4974 0.00702639 -0.00523746 123.554 -8.37583 7.66699 -12.0646 14.2871 5.12079 -13.7869 0.365779 -3.09066 -8.53421 3.70463 -6.08622 38.5315 8.04003 -12.0329 46.0425 105.729 21.8038 -31.167 63.3909 15.3056 -8.12882 -11.0283 30.1024 28.0662 -2.22984 -46.696 -4.44297 -158.636 -1.25238 155.003 0.000468193 -0.000143845 18.18 0.000151788 -5.22067e-005 11.9915 0.000183986 -0.00134758 -0.000152183 36.4824 86.5054 -18.1102 -0.00031245 -0.000222087 14.4799 0.00111922 -0.000799368 10.6233 -0.000567991 -0.000445202 -2.25124 -1.6456 86.8911 32.8045 0.000109189 -0.000169661 15.2564 0.000916984 -0.000696128 16.0675 -0.000614217 -0.000461502 -2.25695 -58.2221 83.2448 92.5929 0.000119443 -0.000861286 16.2867 0.00153874 -0.000404333 17.1182 -0.00062569 -0.000654713 -2.24993 -63.1873 86.0861 89.1256 0.00822595 0.00260895 19.3413 0.000142298 -0.000151503 18.9603 -0.000758381 -8.27844e-006 -2.25075 -54.8232 -20.6408 -8.94427 -2.95049 45.131 26.872 7.09752 19.9447 24.2987 0.0545319 36.0449 -10.1483 142.213 51.8015 169.894 1.33853e-005 -0.000573072 16.9256 8.01979e-005 7.81195e-005 18.8543 -0.000244141 3.24611e-014 -180 -95.0293 -68.1709 -102.33 -0.000191089 -0.000228457 49.758 3.97782e-005 -7.35112e-005 45.1944 -1.52588e-005 -0.000137329 -180 -105.983 -79.9218 -76.0642 -0.000204 3.01655e-005 65.9845 -0.00030536 0.000345994 58.5702 4.57764e-005 -7.62939e-005 -180 -16.1791 -83.9646 34.4443 -9.12745e-005 0.000267617 55.5556 -0.000214767 -5.84879e-005 57.7158 -6.10352e-005 -0.000213623 -180 13.4556 -78.0188 70.402 -0.00028512 0.000532679 51.2477 -5.98753e-005 0.00015459 49.3612 -4.57764e-005 -0.000167847 -180 
0 0 0 -90 -7.01671e-015 -180 -136.982 76.5318 25.1609 142.892 -0.598176 -95.537 -2.63406 -2.3714 -49.2796 16.1402 23.4044 36.1681 -16.9762 21.3162 58.2754 -1.88887e-005 -6.25263e-006 -86.4974 168.878 -23.4446 -115.409 -0.245463 -0.0839701 -5.11746 -8.67853 -2.07191 39.8825 -4.22201 4.02116 52.7569 2.79502e-005 -1.43849e-005 -86.4974 0.00702383 -0.00524738 123.443 -8.37683 7.60043 -12.0795 14.3436 5.07504 -13.7599 0.396068 -3.26272 -8.35416 3.69834 -6.11082 38.395 8.06053 -12.0546 46.0168 105.581 21.7945 -31.2359 63.4285 15.4165 -7.90677 -11.096 30.0963 28.1262 -3.02374 -46.7318 -4.91824 -158.613 -1.25712 155.102 0.000465702 -0.000140963 18.1655 0.000152801 -5.04721e-005 12.0241 0.000183984 -0.00134758 -0.000152183 37.6925 86.4964 -19.1359 -0.000310866 -0.000221918 14.5813 0.00112124 -0.00079748 10.7485 -0.000565906 -0.000442958 -2.17362 -1.50968 86.9197 32.8055 0.000111048 -0.000169434 15.4239 0.000916993 -0.000695931 16.1912 -0.000724193 -0.000543361 -2.1857 -58.1243 83.2777 92.6381 0.000121321 -0.000857416 16.4804 0.00154275 -0.000401848 17.268 -0.00062648 -0.000652057 -2.17232 -63.1814 86.0671 89.3424 0.0119693 0.00462515 19.5008 0.000142554 -0.000150268 19.0926 -0.00150159 5.81389e-006 -2.17277 -54.7947 -20.603 -9.10535 -2.79574 45.1711 26.7495 7.13807 19.844 24.0965 -0.091822 36.1152 -9.98195 142.213 51.8016 169.894 1.32864e-005 -0.000577948 16.9256 8.02026e-005 7.56946e-005 18.8543 -0.000244141 7.01671e-015 -180 -95.0293 -68.1709 -102.33 -0.000191336 -0.000233763 49.758 4.10328e-005 -7.69774e-005 45.1944 -1.52588e-005 -0.000137329 -180 -105.983 -79.9218 -76.0642 -0.000204663 2.6374e-005 65.9845 -0.000304063 0.000341368 58.5702 4.57764e-005 -7.62939e-005 -180 -16.1791 -83.9647 34.4443 -9.04586e-005 0.000259471 55.5556 -0.000215315 -6.55144e-005 57.7158 -6.10351e-005 -0.000228882 -180 13.4556 -78.0188 70.402 -0.000285044 0.000527978 51.2477 -6.04631e-005 0.000144342 49.3612 -4.57764e-005 -0.000167847 -180 
0 0 0 -90 -7.01671e-015 -180 -138.397 75.9703 26.5823 143.428 -0.918027 -95.8715 -2.63755 -2.37062 -49.3257 15.9531 23.4906 36.4281 -17.1278 21.1904 58.7045 -1.89277e-005 -1.31386e-005 -86.4974 169.227 -23.7574 -115.449 -0.245479 -0.0823249 -5.20694 -8.67713 -1.70147 39.8388 -4.23866 4.0036 52.9949 2.79449e-005 -2.11663e-005 -86.4974 0.00700635 -0.00527142 123.255 -8.36912 7.43141 -12.0609 14.4098 4.99836 -13.6891 0.451234 -3.56574 -8.05899 3.74275 -6.22747 38.2681 8.08381 -12.0579 45.9171 105.389 21.774 -31.3708 63.4698 15.592 -7.5221 -11.1436 30.1268 28.0621 -3.26469 -46.9829 -5.1418 -158.575 -1.26451 155.261 0.00046613 -0.000138477 18.1247 0.000152655 -4.99386e-005 12.1159 0.000183984 -0.00135 -0.000152183 39.6286 86.4796 -20.775 -0.000309862 -0.000223759 14.7446 0.00112793 -0.00079779 10.9501 -0.000566018 -0.000444401 -2.09601 -1.29171 86.9659 32.8081 0.000111907 -0.000172551 15.6933 0.000923657 -0.00069325 16.3904 -0.000830677 -0.000626345 -2.11445 -57.9681 83.3309 92.712 0.000125277 -0.000858333 16.7922 0.0015506 -0.000400267 17.5092 -0.000620559 -0.000653797 -2.09471 -63.1679 86.0366 89.6873 0.00113898 -0.00113998 19.7654 0.00946376 0.00311153 19.3042 -0.00224476 2.13644e-005 -2.09479 -54.6937 -20.5461 -9.29244 -2.83628 45.1485 26.5745 7.04044 20.1216 24.1767 -0.100935 35.7852 -9.94669 142.213 51.8016 169.894 1.34992e-005 -0.000586276 16.9256 8.02547e-005 6.92825e-005 18.8543 -0.000244141 -1.52588e-005 -180 -95.0293 -68.1709 -102.33 -0.000191301 -0.000240734 49.758 4.24986e-005 -8.34297e-005 45.1944 -1.52588e-005 -0.000152588 -180 -105.983 -79.9218 -76.0642 -0.000204885 2.1107e-005 65.9845 -0.000304662 0.000327795 58.5702 4.57764e-005 -9.15526e-005 -180 -16.1791 -83.9647 34.4443 -9.03685e-005 0.000239703 55.5556 -0.000215183 -8.0403e-005 57.7158 -6.10351e-005 -0.00024414 -180 13.4557 -78.0188 70.402 -0.000284777 0.00052115 51.2477 -5.76297e-005 0.000128267 49.3612 -4.57763e-005 -0.000183105 -180 
0 0 0 -90 -7.01671e-015 -180 -139.482 75.5492 27.6463 143.935 -1.20403 -96.1817 -2.64478 -2.36825 -49.4307 15.3901 23.5545 37.066 -17.0924 21.2095 58.6221 -1.89054e-005 -3.08833e-005 -86.4974 169.717 -24.0633 -115.466 -0.244915 -0.074602 -5.28989 -8.42078 -1.76271 39.9667 -4.22363 4.01947 52.7799 2.78754e-005 -3.52832e-005 -86.4974 0.00700432 -0.00528197 123.152 -8.35964 7.35362 -12.0413 14.4526 4.96059 -13.6869 0.482384 -3.75211 -7.94267 3.78067 -6.2865 38.2679 8.14348 -12.0986 46.0225 105.268 21.7552 -31.4876 63.4554 15.6832 -7.3884 -11.3915 30.1936 28.11 -3.37239 -47.4106 -5.10578 -158.524 -1.27401 155.477 0.000465966 -0.00013885 18.0839 0.000155646 -5.06221e-005 12.2078 0.000183984 -0.00135483 -0.000152183 42.2136 86.4526 -22.9592 -0.000309244 -0.000221869 14.9649 0.00113365 -0.000796298 11.2221 -0.000563205 -0.000444209 -2.0184 -0.997398 87.0282 32.8114 0.000116792 -0.000171547 16.0571 0.000924815 -0.000696009 16.6592 -0.000939379 -0.000708974 -2.0432 -57.7587 83.4029 92.8131 0.000128953 -0.0008589 17.2129 0.00155483 -0.000398501 17.8346 -0.000619659 -0.000652414 -2.0171 -63.1411 85.9954 90.1441 0.00114381 -0.00114012 20.1231 0.010448 0.00353068 19.5942 -0.00298706 3.59425e-005 -2.01681 -54.6307 -20.5081 -9.4214 -2.8121 45.0119 26.3154 7.07096 20.1352 24.3653 -0.0726153 35.6024 -10.0058 142.213 51.8016 169.894 1.35515e-005 -0.000602677 16.9256 8.00692e-005 5.68486e-005 18.8543 -0.000244141 -3.05176e-005 -180 -95.0293 -68.171 -102.33 -0.000191066 -0.000256729 49.758 3.91074e-005 -0.000103118 45.1944 -1.52587e-005 -0.000198364 -180 -105.983 -79.9218 -76.0642 -0.000204827 1.32719e-005 65.9845 -0.000303388 0.000302158 58.5702 4.57764e-005 -0.00012207 -180 -16.1793 -83.9648 34.4441 -9.04121e-005 0.000201517 55.5556 -0.000215036 -0.000107004 57.7158 -6.10351e-005 -0.000274658 -180 13.4556 -78.0188 70.402 -0.000284778 0.000506532 51.2477 -5.06825e-005 0.000102396 49.3612 -4.57763e-005 -0.000213623 -180 
